<svg xmlns="http://www.w3.org/2000/svg" viewBox="0 0 339.19 376.31"><g id="Layer_2" data-name="Layer 2"><g id="Layer_1-2" data-name="Layer 1"><path d="M300.93,320.19c.62,1.45,1.19,2.55,1.56,3.7a3.58,3.58,0,0,1-3.36,5,20.56,20.56,0,0,1-4.28-.35,27.4,27.4,0,0,1-4.28-1.09,1.56,1.56,0,0,0-2.23.87c-4.2,7.25-10.6,11.44-18.74,13-9.1,1.78-17.57-.17-25.59-4.57l-1-.55c-.88,1.12-1.73,2.26-2.67,3.33a7.57,7.57,0,0,1-2,1.7,3.39,3.39,0,0,1-4.62-1.76c-1.08-2.14-2-4.35-3-6.54-.78-1.74-1.53-3.51-2.36-5.24-.15-.32-.59-.73-.88-.72a61.16,61.16,0,0,1-12.16-1,6.44,6.44,0,0,0-.89,0c-.16,3.1-.34,6.13-.48,9.15-.34,7.39-.58,14.79-1.06,22.17a9,9,0,0,1-1.65,4.51c-5.05,6.81-12.05,10.7-20.12,12.77a63.13,63.13,0,0,1-23,1.18c-16.52-1.93-31.78-7.75-46.44-15.33a221.56,221.56,0,0,1-44.27-30.58l-.86-.73a19.55,19.55,0,0,1-7,4.12,12.71,12.71,0,0,1-16.46-8.45c-.2-.65-.39-1.3-.59-1.95-.48-1.54-1.13-1.94-2.56-1.15a23.59,23.59,0,0,0-4.4,3,10.18,10.18,0,0,1-11.11,2.16,16.12,16.12,0,0,1-10.64-12.84,18.07,18.07,0,0,1,1.93-11.86c.24-.45.45-.91.7-1.42-1.73-1-3.45-2-5.06-3.05A46.92,46.92,0,0,1,2,271.13c-3.11-10.92-2.33-21.7,1-32.5,3.56-11.5,8.54-22.44,12.68-33.7a308.42,308.42,0,0,0,11.57-37.47c1.25-5.44,2.27-10.94,3.19-16.44.67-4,1-8,1.47-12a183.92,183.92,0,0,1,5.32-27.83C42.78,90.7,51.51,71.69,64.39,54.69,77.83,37,94.41,23.14,115,14.37a101.82,101.82,0,0,1,29-7.73c4.61-.5,8.87-2.24,13.38-3,5-.87,10-1.85,15-2.58A107.54,107.54,0,0,1,196.08.35c30.79,2.35,57,14.58,78.21,37,15.94,16.84,26.31,36.82,32.22,59.13,1.86,7,3.15,14.14,4.34,21.28,1.73,10.35,2.8,20.84,5.85,30.92,2.13,7,4.79,13.86,7.25,20.77,4.43,12.44,9,24.85,12,37.72a141.43,141.43,0,0,1,2.51,15,74.59,74.59,0,0,1,.71,12.39c-.54,12.18-3.26,23.82-9.11,34.66-4.16,7.72-9.51,14.57-14.78,21.5-2,2.58-3.84,5.22-5.69,7.87-3.69,5.3-3.6,10.72-.36,16.18.72,1.21,1.26,2.41.72,3.85a5.2,5.2,0,0,1-6.77,2.66C302.51,321,301.88,320.7,300.93,320.19ZM116.39,186.36c-.79.29-1.15.46-1.52.55-2.62.68-5.21,1.54-7.87,2a3.35,3.35,0,0,1-4.06-3.1,3.69,3.69,0,0,1,3.43-3.79,29.88,29.88,0,0,0,8.84-2.84c7.09-3.53,12.54-8.92,17-15.31,9.38-13.28,14-28.36,16.47-44.24.28-1.78.44-3.57.75-5.34a3.42,3.42,0,0,1,6.66-.6c.08.21.18.42.24.57,2.27-2.21,4.51-4.36,6.72-6.55s4.23-4.36,6.43-6.46a3.52,3.52,0,0,1,6,1.28,4.47,4.47,0,0,1-.11,3.37c-1.71,4.34-3.38,8.7-5.07,13-.42,1.06-.82,2.12-1.35,3.5,3,.43,5.81,1,8.64,1.2a70.15,70.15,0,0,0,16.38-.46c3.58-.53,7-1.49,9.27-4.6.45-.61,1-1.14,1.47-1.74,5.36-7,10.18-14.23,12.81-22.73a3.43,3.43,0,0,1,4.05-2.55A3.52,3.52,0,0,1,224.17,96c-.88,3.69-1.91,7.33-2.88,11-.8,3-1.62,6-2.46,9.14.22-.13.31-.15.36-.21.2-.24.4-.49.59-.75A70.43,70.43,0,0,0,232,87.31,41.86,41.86,0,0,0,232.78,74c-.24-2.2.9-4.07,2.91-4.38a3.45,3.45,0,0,1,4,3.25A48.14,48.14,0,0,1,239.32,86a3.36,3.36,0,0,0,.12,1.61A42.17,42.17,0,0,1,242,100.4c.23,3.61.05,7.24.05,10.86a28.54,28.54,0,0,0,3.08-6c2.05-6.15,4.52-12.2,4.7-18.85a3.47,3.47,0,0,1,3.73-3.56c2,.15,3.14,1.74,3.2,4,.07,2.51.25,5,.48,7.52.41,4.56.9,9.13,1.35,13.69.47,4.76,1,9.53,1.37,14.29a1.49,1.49,0,0,0,1.11,1.45,82.45,82.45,0,0,0,31.14,5.58,4,4,0,0,0,4.13-2.89,54.19,54.19,0,0,0,3.12-14.1,53.59,53.59,0,0,0-.74-17,95.67,95.67,0,0,0-6.06-17.48c-8.26-18.64-20-34.66-36-47.29A108.89,108.89,0,0,0,202,8a111.69,111.69,0,0,0-25.58-.4c-5.28.55-10.53,1.5-15.75,2.5-3,.58-6.07,1-8.73,2.68a2.92,2.92,0,0,1-1.27.27c-2,.19-4.07.28-6.08.54a101.49,101.49,0,0,0-25.84,6.8c-19.68,8.12-35.5,21.18-48.37,38-12.21,15.92-20.54,33.77-26,53a199.86,199.86,0,0,0-5.52,27.31c-.66,4.77-.59,9.61-1.66,14.35-1.22,5.45-2,11-3.28,16.43a319.86,319.86,0,0,1-11.78,38c-4.08,11.08-9,21.82-12.49,33.14-2.53,8.2-3.57,16.46-1.93,24.91a40.26,40.26,0,0,0,15.09,24.69c2.9,2.27,6,4.48,9.71,5.23,3.22.65,4.17,3.4,2.2,6a36.38,36.38,0,0,0-3.36,5.46,8.91,8.91,0,0,0-.52,6.22c.91,3.71,4.33,5.73,8.55,5.09.65-.1,1.34,0,2,0a3.46,3.46,0,0,0,1.37-.28,44.47,44.47,0,0,1,5.54-3c4.43-1.61,9.72.67,10.78,5.49.19.85.5,1.68.77,2.51a5.62,5.62,0,0,0,7.21,3.78A14.45,14.45,0,0,0,76,318.83c1.91-4.05,3.33-8.36,4.84-12.6A30.43,30.43,0,0,1,85,297.89a11.27,11.27,0,0,1,10.27-4.79c4.52.3,7.29,2.53,8.35,6.89.21.87.29,1.76.44,2.67.11-.07.2-.09.24-.15.62-.88,1.26-1.75,1.85-2.65A38.8,38.8,0,0,0,112.44,282a45.73,45.73,0,0,0-1.73-17c-1.95-6.87-4-13.69-6-20.56-2.63-9.29-2.65-18.49,1-27.59q4-9.87,7.56-19.91C114.5,193.61,115.31,190.12,116.39,186.36ZM81.25,323.85c.32.31.54.54.78.74a216.45,216.45,0,0,0,37.19,26.58c15.5,8.67,31.69,15.47,49.5,17.64a56.07,56.07,0,0,0,20.45-.9c6.3-1.56,11.87-4.45,16.06-9.57a3.14,3.14,0,0,0,.8-1.66c.31-5.67.52-11.34.81-17a1.93,1.93,0,0,0-.91-1.87q-17.16-12.72-34.28-25.45a15.6,15.6,0,0,0-3-1.71c-5.77-2.51-11.57-5-17.36-7.47a11,11,0,0,1-1.82-.91,3.37,3.37,0,0,1-1.28-4.31,3.4,3.4,0,0,1,4-1.87,12.83,12.83,0,0,1,1.91.7c11.4,4.79,22.75,9.68,34.2,14.33A126.21,126.21,0,0,0,211,318a90.49,90.49,0,0,0,13.48,1.87,56.42,56.42,0,0,0,11.28-.9A28.23,28.23,0,0,0,250,312.84c3.73-3.19,7.24-6.64,10.73-10.1,4.78-4.72,9.53-9.47,14.13-14.35A65.59,65.59,0,0,0,287,270.69a113.93,113.93,0,0,0,7-20.95c1-4.18,1.53-8.48,2.18-12.74.5-3.34.84-6.7,1.28-10.2-.58.11-.88.16-1.18.24a51.17,51.17,0,0,1-25.22.7c-.93-.22-1,.23-1.2.82a28.1,28.1,0,0,1-7.73,11.79,6.55,6.55,0,0,0-2.2,3.28,3.27,3.27,0,0,1-3.73,2.49,3.46,3.46,0,0,1-2.95-3.41,6.57,6.57,0,0,1,1.85-5.14,45.29,45.29,0,0,0,6.68-7.8,9.54,9.54,0,0,0,.49-9.92c-3.29-6.25-6.8-12.38-10.16-18.59-2.86-5.3-6-10.49-7.74-16.3-.24-.79-.46-1.35-1.48-1.3-.82,0-1.65-.31-2.47-.33-3.65-.13-7.29,0-10.69,1.5a2,2,0,0,0-1,1.25,106.66,106.66,0,0,1-4.55,17.12c-2.27,6.62-4.77,13.16-8.46,19.15a5.9,5.9,0,0,1-1.61,1.91,64.71,64.71,0,0,1-8.72,5.17c-10.48,4.54-21.36,4.89-32.39,2.43-5.78-1.29-11.28-3.21-15.89-7.17-7.5-6.44-13-14.38-17.37-23.15-3.32-6.69-5.84-13.65-6.29-21.21a1.24,1.24,0,0,0-.34-.84,3.72,3.72,0,0,1-1.52-3.81,2.38,2.38,0,0,0-.41.21q-3.61,3-7.21,6.13a1.42,1.42,0,0,0-.47.86,53.31,53.31,0,0,1-3.07,14.59c-2.49,7-5.16,14-7.92,20.93a34.07,34.07,0,0,0-1.69,21.81c1.42,5.4,3.07,10.74,4.65,16.09,1.79,6,3.43,12.06,3.89,18.34a44.45,44.45,0,0,1-3,20.09c-3.53,8.76-9.21,16.21-14.72,23.75a3.44,3.44,0,0,1-4.49,1.17,4.58,4.58,0,0,1-2.12-4.5c.31-1.77.71-3.52,1-5.3.33-2.44.68-4.89.8-7.35.09-1.82-.65-2.35-2.47-2.45a4.17,4.17,0,0,0-4,2.2,29.29,29.29,0,0,0-2.6,5.23C85.9,313,84.4,318.71,81.25,323.85ZM251.58,108.26c-.3.65-.46,1-.63,1.35-3.12,6.55-6.95,12.59-12.57,17.32a13.72,13.72,0,0,1-2.88,1.91,3.62,3.62,0,0,1-4.28-.86,3.38,3.38,0,0,1-.36-4.23,29.31,29.31,0,0,0,4.08-13.14c.25-2.83,0-5.7,0-8.69-.87,2-1.64,3.82-2.52,5.64-3.18,6.55-6.94,12.72-12.44,17.6a27.89,27.89,0,0,1-5.43,3.68,3.3,3.3,0,0,1-4.83-2,10.87,10.87,0,0,1-.15-3.18,14.73,14.73,0,0,1,.55-2.38c-1,1.11-1.77,2-2.6,2.89a15.68,15.68,0,0,1-6.75,4.57,52.18,52.18,0,0,1-15.14,2,108.56,108.56,0,0,1-12.88-.73,36.85,36.85,0,0,1-8.37-2.18c-2.83-1-3.68-3.56-2.61-6.37.47-1.25.95-2.49,1.32-3.45-2.59,2.48-5.34,5.09-8,7.74a2.44,2.44,0,0,0-.54,1.16c-1.07,4.26-1.93,8.57-3.19,12.76-3.61,12.05-8.91,23.25-17.12,32.92a4.45,4.45,0,0,0-.28.54l1.76-.77c16.7-7.16,34.1-9.32,52.09-7.33a101,101,0,0,1,39.44,12.61,1.71,1.71,0,0,0,1.22.1,35.5,35.5,0,0,1,19.63-.28,2.94,2.94,0,0,0,1.86-.28c1.68-.85,3.25-1.9,4.93-2.73,13.28-6.59,27.41-8.87,42.11-8.28h.93c-.51-2.77-.95-5.41-1.5-8a1.87,1.87,0,0,0-1-1.13,25.33,25.33,0,0,0-10.69-1.64,45.4,45.4,0,0,0-23.09,7.75,10.42,10.42,0,0,1-1.55.9,3.27,3.27,0,0,1-3.6-.43,3.06,3.06,0,0,1-1.13-3.44,6.81,6.81,0,0,1,1.77-3,45,45,0,0,1,32.72-11c1.46.08,2.91.35,4.46.54-.65-3.46-1.29-6.85-1.91-10.22-1.24,0-2.36,0-3.47,0a94.18,94.18,0,0,1-22.07-3.38,50,50,0,0,1-11.3-4.19,3.87,3.87,0,0,1-2.3-3.13C252.71,120.07,252.16,114.35,251.58,108.26Zm71.68,80.53c-.17.12-.27.15-.29.21l-.33,1.15a92.5,92.5,0,0,1-10,24.19,35.19,35.19,0,0,1-7,8.48,3.18,3.18,0,0,0-1,1.89c-.42,3.53-.52,7.11-1.09,10.61-1.22,7.47-2.29,15-4.41,22.28-3.78,13-9.34,25-18.75,35-4.84,5.11-9.82,10.07-14.78,15.07-2.76,2.78-5.54,5.53-8.4,8.21a39,39,0,0,1-19,9.75c-.9.2-1.82.35-2.84.54l2.39,5.32.88-1.08c2.28-2.78,3.65-3,6.63-1.05,6.77,4.38,14.09,6.49,22.18,5.25a19.91,19.91,0,0,0,13.29-7.57,15.13,15.13,0,0,0,2.65-4.89c.84-3,2.81-4.05,5.66-2.68,1.4.67,2.93,1.09,4.62,1.71a9.69,9.69,0,0,0-.24-1q-1.41-3.66-2.85-7.3a3.53,3.53,0,0,1,.76-4,3.32,3.32,0,0,1,4-.51c1.26.69,2.41,1.57,3.61,2.36l1.29.9c-.15-1.41-.34-2.59-.41-3.77a20.18,20.18,0,0,1,3.88-13.07c2.06-2.95,4.16-5.88,6.33-8.74,4.86-6.44,9.84-12.78,13.71-19.92,5.43-10,7.82-20.77,8.44-32,.29-5.39-.48-10.74-1.25-16.06A134.51,134.51,0,0,0,325.9,197C325,194.25,324.15,191.54,323.26,188.79ZM174.57,171.25c-3.3.23-6.62.35-9.92.71a88.46,88.46,0,0,0-23.32,5.67,1.13,1.13,0,0,0-.86,1.34,60.68,60.68,0,0,0,1.06,7.43,69.26,69.26,0,0,0,16.68,29.69,25.55,25.55,0,0,0,9.87,7A52.93,52.93,0,0,0,184,226.28c8.43.33,16.35-1.3,23.62-5.74a9.13,9.13,0,0,0,3.5-3.81,121.1,121.1,0,0,0,10.79-31.67c.42-2.21.38-2.22-1.71-3.28A99.68,99.68,0,0,0,174.57,171.25Zm124.57,2.08c-16.94-1-32.95,1.71-47.57,11.11.62,1.43,1.14,2.95,1.9,4.34,3.31,6.06,6.73,12.05,10,18.13,2.06,3.82,4.06,7.69,5.84,11.65.53,1.17,1.07,1.86,2.23,2.05a80.74,80.74,0,0,0,8.83,1.32,41.09,41.09,0,0,0,16.82-2.53,1.35,1.35,0,0,0,1.06-1.36c.12-3.15.31-6.3.47-9.45a13.27,13.27,0,0,1,.13-1.67,3.36,3.36,0,0,1,3.47-3,3.41,3.41,0,0,1,3.29,3.32c.09,1.53,0,3.07,0,4.6a3.35,3.35,0,0,0,1.09-1.18c6-9.94,9.24-20.83,11.35-32.14.14-.73-.15-1-.77-1.19-2.92-.84-5.82-1.72-8.73-2.56-.82-.24-1.65-.41-2.72-.67,0,3.8.06,7.34,0,10.89-.07,3.23-.23,6.47-.43,9.7a3.49,3.49,0,0,1-3.58,3.45,3.59,3.59,0,0,1-3.39-3.66c0-.8.06-1.6.09-2.4q.38-9,.74-18A4.91,4.91,0,0,0,299.14,173.33Zm17.42-3.79c-6.3-14.72-9.88-30-11.82-45.66-.75,1.81-1.3,3.62-2,5.37-.81,1.94-1.54,3.95-3.26,5.36-.18.14-.16.64-.11.95.63,3.45,1.33,6.89,1.9,10.34.44,2.64.71,5.3,2.87,7.24a1.53,1.53,0,0,1,.19.3,3.8,3.8,0,0,1-.25,4.67,1.73,1.73,0,0,0-.31,1.18c.39,2.32.87,4.62,1.27,6.94.12.66.43.87,1.07,1,3.24.7,6.46,1.48,9.68,2.23C315.94,169.5,316.13,169.5,316.56,169.54Z"/><path d="M228.76,271.27c-10.66-.23-19.51-1.17-28.06-4.09a11.4,11.4,0,0,1-2.29-1,3.37,3.37,0,0,1-1.48-4.05,3.28,3.28,0,0,1,3.81-2.19c1.89.43,3.72,1.18,5.6,1.67a80.31,80.31,0,0,0,18.2,2.51,69.29,69.29,0,0,0,19.59-1.81c2.86-.75,5.57-2.1,8.37-3.11a7.39,7.39,0,0,1,2.85-.62,3,3,0,0,1,2.65,2.27,3.15,3.15,0,0,1-1,3.58,17.67,17.67,0,0,1-3.26,2,44.08,44.08,0,0,1-13.53,3.82C235.84,270.79,231.45,271,228.76,271.27Z"/><path d="M211.65,155.69c-.08,3.54-2.61,5.11-5.78,3.52a55.8,55.8,0,0,0-27.16-6,40.2,40.2,0,0,0-16.31,3.75,4.51,4.51,0,0,1-4.25.15,3.46,3.46,0,0,1-.88-5.73,26,26,0,0,1,4.42-3.46,33.58,33.58,0,0,1,14.42-4.75,46.48,46.48,0,0,1,26.32,4.3,59.16,59.16,0,0,1,7.6,4.94A3.48,3.48,0,0,1,211.65,155.69Z"/><path d="M201.05,188.81a22.24,22.24,0,0,1-2.43,11.11,13,13,0,0,1-2.51,3.32,5.53,5.53,0,0,1-8.62-1.05,12.7,12.7,0,0,1-2-6.93,22.65,22.65,0,0,1,2.18-11.17,13.28,13.28,0,0,1,2.67-3.78c2.93-2.82,7.13-2.08,9.11,1.47A13.31,13.31,0,0,1,201.05,188.81Z"/><path d="M281.4,189.29A21.26,21.26,0,0,1,279,199.91a12.84,12.84,0,0,1-2.69,3.47,5.48,5.48,0,0,1-8.36-1.09,12.56,12.56,0,0,1-2.08-7.14A22.3,22.3,0,0,1,268,184.21a14.13,14.13,0,0,1,2.71-3.9c2.92-2.82,7.11-2.08,9.12,1.46C280.92,183.73,281.39,186,281.4,189.29Z"/></g></g></svg>