<svg xmlns="http://www.w3.org/2000/svg" viewBox="0 0 339.19 376.3"><g id="Layer_2" data-name="Layer 2"><g id="Layer_1-2" data-name="Layer 1"><path d="M76.87,329.37A62.36,62.36,0,0,1,70.16,333,12.67,12.67,0,0,1,53,324.47c-.15-.58-.33-1.15-.51-1.72-.44-1.4-1.1-1.81-2.41-1.09a23.72,23.72,0,0,0-4.52,3.08,10.21,10.21,0,0,1-11.22,2.13,16.13,16.13,0,0,1-10.53-12.8,18,18,0,0,1,1.92-11.85c.22-.43.42-.86.62-1.29,0,0,0-.08,0-.22-1.58-.94-3.27-1.84-4.84-2.9a46.94,46.94,0,0,1-19.82-27.6c-2.83-10.64-2-21.11,1.26-31.58,3.56-11.54,8.58-22.51,12.73-33.81a308.3,308.3,0,0,0,11.52-37.36c1.24-5.44,2.27-10.93,3.19-16.44.67-4,1-8,1.47-12a184.16,184.16,0,0,1,5.32-27.83c5.47-20.12,14-38.8,26.47-55.57,13.43-18,30.1-32.14,50.87-41.1A102.47,102.47,0,0,1,144,6.63c4.3-.47,8.27-2,12.45-2.8,5.31-1,10.62-2,16-2.8A108.3,108.3,0,0,1,196,.33C218.77,2,239.55,9.29,258,22.9c19.77,14.58,33.59,33.73,42.8,56.35A150,150,0,0,1,310,112.12c.87,5.38,1.85,10.74,2.54,16.14,1.87,14.54,6.38,28.3,11.64,41.91a277.05,277.05,0,0,1,11.79,37,146.72,146.72,0,0,1,2.52,15.05,74.52,74.52,0,0,1,.7,12.39c-.54,12.18-3.26,23.82-9.1,34.66-4.16,7.72-9.51,14.57-14.78,21.5-2,2.58-3.84,5.22-5.69,7.88-3.69,5.29-3.61,10.71-.37,16.17.72,1.21,1.26,2.41.72,3.85a5.21,5.21,0,0,1-6.76,2.68c-.64-.33-1.26-.68-2.21-1.19.59,1.39,1.13,2.45,1.51,3.58.92,2.7-.59,5-3.43,5.11a20,20,0,0,1-4.16-.36,38.43,38.43,0,0,1-4.75-1.21c-.83-.26-1.15-.05-1.57.67-4.26,7.43-10.72,11.75-19.05,13.36-8.94,1.72-17.26-.17-25.17-4.41l-1.31-.71c-1,1.2-1.86,2.36-2.79,3.5-2.3,2.81-5.28,2.44-6.79-.88-1.66-3.63-3.27-7.28-4.86-10.94a1.45,1.45,0,0,0-1.5-1c-3.66-.2-7.31-.53-11-.81l-1.61-.12c-.17,3.12-.35,6.15-.49,9.17-.34,7.39-.58,14.79-1.06,22.16a9.18,9.18,0,0,1-1.72,4.62c-5,6.75-12,10.62-20,12.67a62.88,62.88,0,0,1-23,1.19c-16.94-2-32.54-8-47.51-15.88a222.11,222.11,0,0,1-43.21-30C77.19,329.63,76.91,329.41,76.87,329.37Zm4.37-5.52c.37.34.62.59.89.82a214.91,214.91,0,0,0,41.63,29c14.18,7.46,28.93,13.25,45,15.17a56.23,56.23,0,0,0,20.44-.9c6.3-1.57,11.87-4.45,16.07-9.58a3.28,3.28,0,0,0,.79-1.66c.3-5.63.51-11.26.8-16.89a2,2,0,0,0-.92-2q-17.16-12.69-34.28-25.44a15.27,15.27,0,0,0-3-1.7c-5.77-2.52-11.58-5-17.36-7.47a11.09,11.09,0,0,1-1.82-.92,3.35,3.35,0,0,1-1.26-4.31,3.41,3.41,0,0,1,4-1.86,13.76,13.76,0,0,1,1.91.71c11.39,4.78,22.74,9.67,34.19,14.33A147.25,147.25,0,0,0,211,318.05a59.5,59.5,0,0,0,13.84,1.86,74.07,74.07,0,0,0,10.92-1A28.29,28.29,0,0,0,250,312.82c3.73-3.19,7.24-6.64,10.74-10.09,4.77-4.72,9.52-9.47,14.13-14.36a65.89,65.89,0,0,0,12.23-17.81,113.93,113.93,0,0,0,7-21c1-4.15,1.52-8.4,2.15-12.62.5-3.34.85-6.7,1.26-10a3.69,3.69,0,0,0-.47-.08l-.7.17a51.21,51.21,0,0,1-25.23.7c-.81-.19-1,.12-1.15.72-1.42,4.73-4.3,8.52-7.76,11.9a6.49,6.49,0,0,0-2.2,3.28,3.28,3.28,0,0,1-3.74,2.48,3.47,3.47,0,0,1-2.94-3.42,6.58,6.58,0,0,1,1.86-5.14,44.5,44.5,0,0,0,6.67-7.81,9.42,9.42,0,0,0,.53-9.8c-3.26-6.22-6.72-12.33-10.07-18.5-2.91-5.36-6.06-10.62-7.87-16.5-.24-.8-.49-1.34-1.49-1.29-.78,0-1.57-.29-2.35-.32-3.7-.15-7.35,0-10.84,1.45a1.48,1.48,0,0,0-1,1.29,104.41,104.41,0,0,1-4.83,18,92.29,92.29,0,0,1-8.15,18.24,5.75,5.75,0,0,1-1.6,1.91,66.53,66.53,0,0,1-8.73,5.17c-10.48,4.54-21.36,4.87-32.39,2.41-5.78-1.28-11.28-3.21-15.89-7.17-7.5-6.44-13-14.38-17.36-23.16-3.32-6.68-5.84-13.64-6.29-21.2a1.24,1.24,0,0,0-.34-.84,3.63,3.63,0,0,1-1.54-3.65c-2.62,2.12-5.22,4.21-7.8,6.33a1.13,1.13,0,0,0-.28.73,53.08,53.08,0,0,1-3.06,14.6q-3.72,10.49-7.88,20.81a34.24,34.24,0,0,0-1.73,21.93c1.42,5.39,3.08,10.73,4.66,16.08,1.79,6.05,3.44,12.14,3.89,18.46a44.21,44.21,0,0,1-3.2,20.53c-3.55,8.47-9.08,15.73-14.4,23.12l-.08.09c-1.4,1.49-3,1.89-4.51,1.13a4.54,4.54,0,0,1-2.11-4.5c.3-1.77.71-3.52,1-5.3.34-2.44.69-4.89.8-7.35.09-1.82-.65-2.34-2.48-2.44a4.17,4.17,0,0,0-4,2.21,29.29,29.29,0,0,0-2.6,5.23C85.9,313,84.4,318.71,81.24,323.85Zm81.85-205.68c-2.56,2.43-5.36,5.08-8.14,7.77a2.31,2.31,0,0,0-.42,1.09c-1.22,4.75-2.22,9.56-3.67,14.24A88.8,88.8,0,0,1,135,171.78L134,173l.24.08c.18-.07.37-.13.55-.21,17.49-7.75,35.76-9.91,54.63-7.56a100,100,0,0,1,37.78,12.4,1.78,1.78,0,0,0,1.22.14,32,32,0,0,1,17.27-.75,8.34,8.34,0,0,0,6.54-1.07c13-7.34,27.08-10,41.84-9.84,1.26,0,2.53,0,3.84,0-.49-2.7-.94-5.37-1.5-8a1.88,1.88,0,0,0-1.06-1.08,25.15,25.15,0,0,0-10.58-1.62,45.33,45.33,0,0,0-23,7.66,13.58,13.58,0,0,1-1.64,1,3.25,3.25,0,0,1-3.61-.39,3.07,3.07,0,0,1-1.15-3.53,7.12,7.12,0,0,1,1.63-2.84,39.26,39.26,0,0,1,13.23-8,43.56,43.56,0,0,1,20.41-3.07c1.2.13,2.4.34,3.67.53-.67-3.55-1.31-6.94-1.93-10.26-1.3,0-2.41,0-3.53,0a94.73,94.73,0,0,1-22.07-3.4,50.7,50.7,0,0,1-11.19-4.15,3.79,3.79,0,0,1-2.31-3c-.4-4.09-.77-8.18-1.16-12.28-.16-1.69-.36-3.39-.52-4.84-2,3.4-4,6.94-6.19,10.38a38.54,38.54,0,0,1-8.11,8.61,7.1,7.1,0,0,1-1.75,1,3.74,3.74,0,0,1-4.3-.83,3.61,3.61,0,0,1-.43-4.24,45.34,45.34,0,0,0,2.5-5.28,42.91,42.91,0,0,0,1.92-14.42c0-.68-.1-1.35-.15-2a3.54,3.54,0,0,0-.71,1.2c-3.07,7.4-6.94,14.31-12.49,20.16a23.28,23.28,0,0,1-7.13,5.4c-2.52,1.16-4.9-.1-5.17-2.85a23.77,23.77,0,0,1,.31-4.39c-.71.8-1.48,1.71-2.3,2.57a15.84,15.84,0,0,1-6.86,4.62,52.13,52.13,0,0,1-15,2,128.58,128.58,0,0,1-13-.72,23.3,23.3,0,0,1-8.59-2.27,4.63,4.63,0,0,1-2.37-6.14C162.23,120.35,162.74,119.07,163.09,118.17Zm11.52,53.07c-3.23.22-6.46.35-9.68.68a88.81,88.81,0,0,0-23.57,5.69,1.19,1.19,0,0,0-.89,1.44,59,59,0,0,0,1.05,7.31,69.3,69.3,0,0,0,16.67,29.69,25.44,25.44,0,0,0,9.86,7,52.59,52.59,0,0,0,15.88,3.19c8.38.33,16.27-1.27,23.52-5.66a9.44,9.44,0,0,0,3.67-4,121.05,121.05,0,0,0,10.75-31.55c.43-2.25.39-2.26-1.67-3.3A99.57,99.57,0,0,0,174.61,171.24Zm124.57,2.08c-17-1-33,1.71-47.61,11.11.62,1.44,1.15,2.95,1.91,4.34,3.3,6.06,6.72,12.06,10,18.13,2.07,3.83,4.06,7.7,5.85,11.66.52,1.16,1.06,1.85,2.22,2.05a83.76,83.76,0,0,0,8.72,1.3,41,41,0,0,0,16.94-2.52,1.36,1.36,0,0,0,1.06-1.36c.11-3.16.3-6.31.46-9.46a13.11,13.11,0,0,1,.13-1.66,3.37,3.37,0,0,1,3.47-3,3.4,3.4,0,0,1,3.29,3.32c.09,1.53,0,3.07,0,4.68.23-.11.32-.12.36-.17.25-.36.51-.72.74-1.09,6-9.94,9.24-20.83,11.34-32.14.14-.74-.16-1-.78-1.19-2.91-.85-5.81-1.72-8.72-2.56-.82-.24-1.65-.41-2.49-.62,0,2,0,3.79,0,5.57s-.14,3.6-.22,5.39c-.14,3.24-.24,6.48-.45,9.71a3.47,3.47,0,0,1-3.45,3.32,3.54,3.54,0,0,1-3.48-3.31,10.82,10.82,0,0,1,0-1.8q.39-9.33.79-18.68A7.42,7.42,0,0,0,299.18,173.32Z"/><path d="M228.4,271.25c-10.26-.22-19.12-1.15-27.67-4.07a13.27,13.27,0,0,1-2.2-.92,3.37,3.37,0,0,1-1.6-4.1,3.28,3.28,0,0,1,3.9-2.21c1.89.44,3.72,1.18,5.6,1.68a79.89,79.89,0,0,0,18.08,2.49,69.29,69.29,0,0,0,19.59-1.81,78.14,78.14,0,0,0,8.37-3.12c.37-.14.71-.36,1.09-.49a3.4,3.4,0,0,1,4.09,1.36,3.27,3.27,0,0,1-.57,4.26,14.4,14.4,0,0,1-3,1.91,48,48,0,0,1-16,4.27C234.44,270.91,230.77,271.07,228.4,271.25Z"/><path d="M181.93,142.79c9.33.19,18.07,2.33,25.83,7.76a27.59,27.59,0,0,1,2.25,1.79,4.42,4.42,0,0,1,1.26,5.41c-.83,2-2.92,2.57-5.16,1.6A86.14,86.14,0,0,0,198,156c-10.42-3.33-20.95-4-31.52-.64-1.4.45-2.73,1.11-4.11,1.63a7.82,7.82,0,0,1-2,.57,3.82,3.82,0,0,1-3.82-2.17,3.66,3.66,0,0,1,.94-4.17,26.55,26.55,0,0,1,9.74-5.93A42.59,42.59,0,0,1,181.93,142.79Z"/><path d="M201,189.33A21.48,21.48,0,0,1,198.61,200a12.84,12.84,0,0,1-2.62,3.37,5.49,5.49,0,0,1-8.45-1.08,12.6,12.6,0,0,1-2-7,22.69,22.69,0,0,1,2.15-11.06,13.82,13.82,0,0,1,2.55-3.72c3-3,7.33-2.24,9.35,1.47C200.6,183.86,201,186,201,189.33Z"/><path d="M281.41,188.83A22.34,22.34,0,0,1,279,200a12.5,12.5,0,0,1-2.54,3.29,5.49,5.49,0,0,1-8.53-1.08c-1.86-2.7-2.17-5.81-2-8.95a21.75,21.75,0,0,1,2.16-9.14,14.68,14.68,0,0,1,2.48-3.63c3-3,7.42-2.33,9.42,1.46A13.51,13.51,0,0,1,281.41,188.83Z"/></g></g></svg>